# xmcd
#
# Track frame offsets:
#	150
#	15182
#	26540
#	38714
#	58066
#	68725
#	86299
#	100805
#
# Disc length: 1548 seconds
#
# Revision: 1
# Processed by: cddbd v1.5.2PL0 Copyright (c) Steve Scherf et al.
# Submitted via: audiograbber 1.83.01
#
DISCID=52060a08
DTITLE=Roy Powers - Firing Line
DYEAR=2009
DGENRE=Blues
TTITLE0=St. Lucie Blues
TTITLE1=Firing Line
TTITLE2=Honk If You're Paying My Mortgage
TTITLE3=Blindside
TTITLE4=Pic It Up
TTITLE5=If It's Going To Be Right
TTITLE6=No More Credit
TTITLE7=I Can Almost Hear You Calling
EXTD=
EXTT0=
EXTT1=
EXTT2=
EXTT3=
EXTT4=
EXTT5=
EXTT6=
EXTT7=
PLAYORDER=
